<?xml version="1.0" encoding="UTF-8"?>
<svg width="401px" height="401px" viewBox="0 0 401 401" version="1.1" xmlns="http://www.w3.org/2000/svg" xmlns:xlink="http://www.w3.org/1999/xlink">
    <!-- Generator: Sketch 54.1 (76490) - https://sketchapp.com -->
    <title>Artboard</title>
    <desc>Created with Sketch.</desc>
    <defs>
        <linearGradient x1="50%" y1="0%" x2="50%" y2="100%" id="linearGradient-1">
            <stop stop-color="#558EBB" offset="0%"></stop>
            <stop stop-color="#9BCAE5" offset="100%"></stop>
        </linearGradient>
    </defs>
    <g id="Artboard" stroke="none" stroke-width="1" fill="none" fill-rule="evenodd">
        <g id="Background" transform="translate(99.000000, 0.000000)">
            <path d="M0.25,200.75 L202.75,200.75 L202.75,65 C202.75,29.2395624 173.760438,0.25 138,0.25 L65,0.25 C29.2395624,0.25 0.25,29.2395624 0.25,65 L0.25,200.75 Z" id="Combined-Shape" stroke="#979797" stroke-width="0.5" fill="url(#linearGradient-1)"></path>
            <path d="M0.25,400.75 L202.75,400.75 L202.75,265 C202.75,229.239562 173.760438,200.25 138,200.25 L65,200.25 C29.2395624,200.25 0.25,229.239562 0.25,265 L0.25,400.75 Z" id="Combined-Shape" stroke="#979797" stroke-width="0.5" fill="#4A3220" transform="translate(101.500000, 300.500000) rotate(180.000000) translate(-101.500000, -300.500000) "></path>
            <rect id="Rectangle" fill="#FFFFFF" x="0" y="200" width="203" height="2"></rect>
        </g>
        <g id="BottomNumbers" transform="translate(140.000000, 201.000000)" fill="#FFFFFF">
            <g id="NumberGroup5" transform="translate(60.000000, 180.000000) scale(1, -1) translate(-60.000000, -180.000000) translate(0.000000, 160.000000)">
                <text id="90" transform="translate(26.000000, 21.000000) scale(1, -1) translate(-26.000000, -21.000000) " font-family="PTMono-Regular, PT Mono" font-size="10" font-weight="normal">
                    <tspan x="20" y="25">90</tspan>
                </text>
                <text id="90" transform="translate(94.000000, 21.000000) scale(1, -1) translate(-94.000000, -21.000000) " font-family="PTMono-Regular, PT Mono" font-size="10" font-weight="normal">
                    <tspan x="88" y="25">90</tspan>
                </text>
                <rect id="Small-Tick" x="40" y="20" width="40" height="2"></rect>
            </g>
            <g id="NumberGroup4" transform="translate(61.000000, 142.000000) scale(1, -1) translate(-61.000000, -142.000000) translate(0.000000, 120.000000)">
                <text id="70" transform="translate(26.000000, 25.000000) scale(1, -1) translate(-26.000000, -25.000000) " font-family="PTMono-Regular, PT Mono" font-size="10" font-weight="normal">
                    <tspan x="20" y="29">70</tspan>
                </text>
                <text id="80" transform="translate(7.000000, 5.000000) scale(1, -1) translate(-7.000000, -5.000000) " font-family="PTMono-Regular, PT Mono" font-size="10" font-weight="normal">
                    <tspan x="1" y="9">80</tspan>
                </text>
                <text id="80" transform="translate(115.000000, 5.000000) scale(1, -1) translate(-115.000000, -5.000000) " font-family="PTMono-Regular, PT Mono" font-size="10" font-weight="normal">
                    <tspan x="109" y="9">80</tspan>
                </text>
                <text id="70" transform="translate(94.000000, 25.000000) scale(1, -1) translate(-94.000000, -25.000000) " font-family="PTMono-Regular, PT Mono" font-size="10" font-weight="normal">
                    <tspan x="88" y="29">70</tspan>
                </text>
                <rect id="Small-Tick" x="40" y="24" width="40" height="2"></rect>
                <rect id="Big-Tick" x="21" y="4" width="80" height="2"></rect>
            </g>
            <g id="NumberGroup3" transform="translate(61.000000, 102.000000) scale(1, -1) translate(-61.000000, -102.000000) translate(0.000000, 80.000000)">
                <text id="50" transform="translate(26.000000, 25.000000) scale(1, -1) translate(-26.000000, -25.000000) " font-family="PTMono-Regular, PT Mono" font-size="10" font-weight="normal">
                    <tspan x="20" y="29">50</tspan>
                </text>
                <text id="60" transform="translate(7.000000, 5.000000) scale(1, -1) translate(-7.000000, -5.000000) " font-family="PTMono-Regular, PT Mono" font-size="10" font-weight="normal">
                    <tspan x="1" y="9">60</tspan>
                </text>
                <text id="60" transform="translate(115.000000, 5.000000) scale(1, -1) translate(-115.000000, -5.000000) " font-family="PTMono-Regular, PT Mono" font-size="10" font-weight="normal">
                    <tspan x="109" y="9">60</tspan>
                </text>
                <text id="50" transform="translate(94.000000, 25.000000) scale(1, -1) translate(-94.000000, -25.000000) " font-family="PTMono-Regular, PT Mono" font-size="10" font-weight="normal">
                    <tspan x="88" y="29">50</tspan>
                </text>
                <rect id="Small-Tick" x="40" y="24" width="40" height="2"></rect>
                <rect id="Big-Tick" x="21" y="4" width="80" height="2"></rect>
            </g>
            <g id="NumberGroup2" transform="translate(61.000000, 62.000000) scale(1, -1) translate(-61.000000, -62.000000) translate(0.000000, 40.000000)">
                <text id="30" transform="translate(26.000000, 25.000000) scale(1, -1) translate(-26.000000, -25.000000) " font-family="PTMono-Regular, PT Mono" font-size="10" font-weight="normal">
                    <tspan x="20" y="29">30</tspan>
                </text>
                <text id="40" transform="translate(7.000000, 5.000000) scale(1, -1) translate(-7.000000, -5.000000) " font-family="PTMono-Regular, PT Mono" font-size="10" font-weight="normal">
                    <tspan x="1" y="9">40</tspan>
                </text>
                <text id="40" transform="translate(115.000000, 5.000000) scale(1, -1) translate(-115.000000, -5.000000) " font-family="PTMono-Regular, PT Mono" font-size="10" font-weight="normal">
                    <tspan x="109" y="9">40</tspan>
                </text>
                <text id="30" transform="translate(94.000000, 25.000000) scale(1, -1) translate(-94.000000, -25.000000) " font-family="PTMono-Regular, PT Mono" font-size="10" font-weight="normal">
                    <tspan x="88" y="29">30</tspan>
                </text>
                <rect id="Small-Tick" x="40" y="24" width="40" height="2"></rect>
                <rect id="Big-Tick" x="21" y="4" width="80" height="2"></rect>
            </g>
            <g id="NumberGroup1" transform="translate(61.000000, 22.000000) scale(1, -1) translate(-61.000000, -22.000000) translate(0.000000, 0.000000)">
                <text id="10" transform="translate(26.000000, 25.000000) scale(1, -1) translate(-26.000000, -25.000000) " font-family="PTMono-Regular, PT Mono" font-size="10" font-weight="normal">
                    <tspan x="20" y="29">10</tspan>
                </text>
                <text id="20" transform="translate(7.000000, 5.000000) scale(1, -1) translate(-7.000000, -5.000000) " font-family="PTMono-Regular, PT Mono" font-size="10" font-weight="normal">
                    <tspan x="1" y="9">20</tspan>
                </text>
                <text id="20" transform="translate(115.000000, 5.000000) scale(1, -1) translate(-115.000000, -5.000000) " font-family="PTMono-Regular, PT Mono" font-size="10" font-weight="normal">
                    <tspan x="109" y="9">20</tspan>
                </text>
                <text id="10" transform="translate(94.000000, 25.000000) scale(1, -1) translate(-94.000000, -25.000000) " font-family="PTMono-Regular, PT Mono" font-size="10" font-weight="normal">
                    <tspan x="88" y="29">10</tspan>
                </text>
                <rect id="Small-Tick" x="40" y="24" width="40" height="2"></rect>
                <rect id="Big-Tick" x="21" y="4" width="80" height="2"></rect>
            </g>
        </g>
        <g id="TopNumbers" transform="translate(140.000000, 1.000000)" fill="#FFFFFF">
            <g id="NumberGroup5">
                <text id="90" font-family="PTMono-Regular, PT Mono" font-size="10" font-weight="normal">
                    <tspan x="20" y="25">90</tspan>
                </text>
                <text id="90" font-family="PTMono-Regular, PT Mono" font-size="10" font-weight="normal">
                    <tspan x="88" y="25">90</tspan>
                </text>
                <rect id="Small-Tick" x="40" y="20" width="40" height="2"></rect>
            </g>
            <g id="NumberGroup4" transform="translate(0.000000, 36.000000)">
                <text id="70" font-family="PTMono-Regular, PT Mono" font-size="10" font-weight="normal">
                    <tspan x="20" y="29">70</tspan>
                </text>
                <text id="80" font-family="PTMono-Regular, PT Mono" font-size="10" font-weight="normal">
                    <tspan x="1" y="9">80</tspan>
                </text>
                <text id="80" font-family="PTMono-Regular, PT Mono" font-size="10" font-weight="normal">
                    <tspan x="109" y="9">80</tspan>
                </text>
                <text id="70" font-family="PTMono-Regular, PT Mono" font-size="10" font-weight="normal">
                    <tspan x="88" y="29">70</tspan>
                </text>
                <rect id="Small-Tick" x="40" y="24" width="40" height="2"></rect>
                <rect id="Big-Tick" x="21" y="4" width="80" height="2"></rect>
            </g>
            <g id="NumberGroup3" transform="translate(0.000000, 76.000000)">
                <text id="50" font-family="PTMono-Regular, PT Mono" font-size="10" font-weight="normal">
                    <tspan x="20" y="29">50</tspan>
                </text>
                <text id="60" font-family="PTMono-Regular, PT Mono" font-size="10" font-weight="normal">
                    <tspan x="1" y="9">60</tspan>
                </text>
                <text id="60" font-family="PTMono-Regular, PT Mono" font-size="10" font-weight="normal">
                    <tspan x="109" y="9">60</tspan>
                </text>
                <text id="50" font-family="PTMono-Regular, PT Mono" font-size="10" font-weight="normal">
                    <tspan x="88" y="29">50</tspan>
                </text>
                <rect id="Small-Tick" x="40" y="24" width="40" height="2"></rect>
                <rect id="Big-Tick" x="21" y="4" width="80" height="2"></rect>
            </g>
            <g id="NumberGroup2" transform="translate(0.000000, 116.000000)">
                <text id="30" font-family="PTMono-Regular, PT Mono" font-size="10" font-weight="normal">
                    <tspan x="20" y="29">30</tspan>
                </text>
                <text id="40" font-family="PTMono-Regular, PT Mono" font-size="10" font-weight="normal">
                    <tspan x="1" y="9">40</tspan>
                </text>
                <text id="40" font-family="PTMono-Regular, PT Mono" font-size="10" font-weight="normal">
                    <tspan x="109" y="9">40</tspan>
                </text>
                <text id="30" font-family="PTMono-Regular, PT Mono" font-size="10" font-weight="normal">
                    <tspan x="88" y="29">30</tspan>
                </text>
                <rect id="Small-Tick" x="40" y="24" width="40" height="2"></rect>
                <rect id="Big-Tick" x="21" y="4" width="80" height="2"></rect>
            </g>
            <g id="NumberGroup1" transform="translate(0.000000, 156.000000)">
                <text id="10" font-family="PTMono-Regular, PT Mono" font-size="10" font-weight="normal">
                    <tspan x="20" y="29">10</tspan>
                </text>
                <text id="20" font-family="PTMono-Regular, PT Mono" font-size="10" font-weight="normal">
                    <tspan x="1" y="9">20</tspan>
                </text>
                <text id="20" font-family="PTMono-Regular, PT Mono" font-size="10" font-weight="normal">
                    <tspan x="109" y="9">20</tspan>
                </text>
                <text id="10" font-family="PTMono-Regular, PT Mono" font-size="10" font-weight="normal">
                    <tspan x="88" y="29">10</tspan>
                </text>
                <rect id="Small-Tick" x="40" y="24" width="40" height="2"></rect>
                <rect id="Big-Tick" x="21" y="4" width="80" height="2"></rect>
            </g>
        </g>
    </g>
</svg>